<svg width="24" height="24" viewBox="0 0 24 24" fill="none" xmlns="http://www.w3.org/2000/svg">
    <path fill-rule="evenodd" clip-rule="evenodd" d="M8.5 7.21799C8.5 5.56099 10.738 4.21799 13.5 4.21799L14.609 5.88199C15.1661 6.71776 16.1046 7.21925 17.109 7.21799H17.5C18.0523 7.21799 18.5 7.6657 18.5 8.21799V18.218C18.5 19.3226 17.6046 20.218 16.5 20.218H10.5C9.39543 20.218 8.5 19.3226 8.5 18.218V7.21799Z" stroke="black" stroke-linecap="round" stroke-linejoin="round"/>
    <path d="M18.5 14.218C21.2614 14.218 23.5 11.9794 23.5 9.21799C23.5 6.45656 21.2614 4.21799 18.5 4.21799H13.5" stroke="black" stroke-linecap="round" stroke-linejoin="round"/>
    <path d="M8.5 17.218L2.293 4.66901" stroke="black" stroke-linecap="round" stroke-linejoin="round"/>
    <path d="M0.5 5.55701L4.085 3.78201" stroke="black" stroke-linecap="round" stroke-linejoin="round"/>
</svg>
